<?xml version="1.0" encoding="utf-8"?>
<!-- Generator: Adobe Illustrator 24.3.0, SVG Export Plug-In . SVG Version: 6.00 Build 0)  -->
<svg version="1.1" id="Lag_1" xmlns="http://www.w3.org/2000/svg" xmlns:xlink="http://www.w3.org/1999/xlink" x="0px" y="0px"
	 viewBox="0 0 48 48" style="enable-background:new 0 0 48 48;" xml:space="preserve">
<style type="text/css">
	.st0{fill:#FFFFFF;}
</style>
<desc></desc>
<g id="stroke-4px">
	<g id="The-Icons" transform="translate(-396.000000, -3602.000000)">
		<g id="_x39_.3" transform="translate(396.000000, 3602.000000)">
			<g id="Combined-Shape">
				<path class="st0" d="M24,48C10.7,48,0,37.3,0,24S10.7,0,24,0s24,10.7,24,24S37.3,48,24,48z M24,44c11,0,20-9,20-20S35,4,24,4
					S4,13,4,24S13,44,24,44z M20.8,28.1l12.7-12.7c0.8-0.8,2-0.8,2.8,0c0.8,0.8,0.8,2,0,2.8L22.2,32.3l0,0l0,0
					c-0.4,0.4-0.9,0.6-1.4,0.6c-0.5,0-1-0.2-1.4-0.6l0,0l0,0l-5.6-5.6c-0.8-0.8-0.8-2,0-2.8c0.8-0.8,2.1-0.8,2.8,0L20.8,28.1z"/>
			</g>
		</g>
	</g>
</g>
</svg>
