<?xml version="1.0" ?><svg id="OBJECT" viewBox="0 0 512 512" xmlns="http://www.w3.org/2000/svg"><title/><path d="M497,181H477.71l-19.58-78.34A54.93,54.93,0,0,0,404.77,61H331V35A35,35,0,0,0,296,0H216a35,35,0,0,0-35,35V61H107.23a54.93,54.93,0,0,0-53.36,41.66L34.29,181H15A15,15,0,0,0,0,196v80a15,15,0,0,0,15,15H32.9L56.44,464.4a55.19,55.19,0,0,0,54.5,47.6H401.06a55.19,55.19,0,0,0,54.5-47.6L479.1,291H497a15,15,0,0,0,15-15V196A15,15,0,0,0,497,181ZM211,35a5,5,0,0,1,5-5h80a5,5,0,0,1,5,5V61H211ZM83,109.94A25,25,0,0,1,107.23,91H404.77A25,25,0,0,1,429,109.94L446.79,181H65.21ZM425.84,460.36A25.1,25.1,0,0,1,401.06,482H110.94a25.1,25.1,0,0,1-24.78-21.64L63.17,291H448.83ZM482,261H30V211H482Z"/></svg>