<?xml version="1.0" ?><svg enable-background="new 0 0 276.866 278.4331" id="Layer_1" version="1.1" viewBox="0 0 276.866 278.4331" xml:space="preserve" xmlns="http://www.w3.org/2000/svg" xmlns:xlink="http://www.w3.org/1999/xlink"><g><path d="M201.327,197.9947l6.0968-9.8897c-4.1482-0.5056-8.1171-1.0826-11.7921-1.7349l-3.6136,5.9565   c-2.0615,3.3984-1.915,7.6953,0.374,10.9453l6.7354,9.5632l0.3812-8.9117C199.5985,201.8287,200.2274,199.7789,201.327,197.9947z"/><path d="M229.4204,248.4687c1.9893,0,3.999-0.5923,5.749-1.8252c4.5156-3.1802,5.5977-9.4185,2.418-13.9341l-13.8459-19.6596   l-1.3896,32.4777C224.2634,247.4428,226.8195,248.4687,229.4204,248.4687z"/><path d="M209.9434,188.401l-6.6584,10.8007c-0.8965,1.4541-1.4053,3.1133-1.4785,4.8203l-2.6426,61.7617   c-0.2354,5.5176,4.0459,10.1821,9.5635,10.418c0.1455,0.0063,0.291,0.0093,0.4355,0.0093   c5.3252,0.0005,9.7529-4.2002,9.9834-9.5728l2.5312-59.1587l10.6344-17.2501C224.7813,189.8197,217.1374,189.2146,209.9434,188.401   z"/><path d="M132.3261,138.817l11.3066,6.5175c0.8385,0.4833,1.9194,0.1765,2.4148-0.6831c0,0,9.8311-17.055,12.5012-21.6871   c1.4695-2.5494,2.1671-4.9995,2.7148-7.6458l31.4722,6.0858c0.4141,0.0801,0.8271,0.1187,1.2363,0.1187   c2.4082,0,4.6641-1.3423,5.7891-3.5483L210.864,96.197c2.2544,7.0288,4.251,15.0393,4.042,20.8768   c-1.4028,8.0156-6.5974,19.9987-12.1414,31.8016c-6.1117,13.0118-12.6417,25.7982-14.9674,32.785   c26.2777,6.6055,78.1103,7.2049,86.9781,5.2547c-1.2629-4.7085-2.9307-16.9467-6.249-29.6548   c-3.1997-12.2536-7.9341-24.9442-15.3346-31.7466l-0.2026-0.0457c-0.7433-2.1581-1.3319-4.5338-1.5748-7.3908   c-0.8625-10.1523,5.7368-31.1387,8.3713-39.0169l6.0051-9.3152l10.0381-15.5715c1.1367-1.7627,1.3525-3.9648,0.5811-5.9146   L259.236,4.8825c-1.3213-3.3379-5.0976-4.9741-8.4365-3.6509c-3.3379,1.3213-4.9727,5.0986-3.6514,8.436l15.9443,40.27   l-7.9197,12.2854l-5.423,8.4125c-2.7579,5.7378-7.786,10.3676-14.326,12.4158c-9.6602,3.0253-19.8254-0.4509-25.7708-7.9448   c-1.8157,0.4127-3.4429,1.5967-4.3547,3.3857l-14.8975,29.2197l-25.7112-4.9719c1.9271-4.3799,4.4355-9.145,4.4355-9.145   l0.5134-0.9298c0,0,0.5192-0.9317,0.644-1.1545c0,0,0.835-1.4112,0.0498-1.8638l-3.199-1.8439   c-0.7843-0.4521-1.5896,0.9761-1.5896,0.9761c-0.1274,0.2213-0.6736,1.1374-0.6736,1.1374l-0.5498,0.9089   c0,0-4.0138,6.387-7.2217,10.4467l-1.7478-0.338c-3.5273-0.6782-6.9346,1.6235-7.6162,5.1479   c-0.2506,1.2958-0.0947,2.575,0.3743,3.7099c-1.4572,1.4218-2.7712,2.9496-3.8994,4.9069   c-2.6702,4.6321-12.5012,21.6871-12.5012,21.6871C131.2131,137.2455,131.4892,138.3346,132.3261,138.817z M149.9809,119.0242   l6.4255,3.7039l-7.491,12.9955l-6.4255-3.7039L149.9809,119.0242z"/><path d="M221.198,37.6272c2.0038-0.6275,4.0292-0.9725,6.0345-1.063c-5.8616-4.0706-14.3612-5.7116-26.7992,2.2908   c-15.2886,9.8364-20.948,6.1096-23.3251,1.7974c-2.3771-4.3123-4.1112,10.8194,12.0526,14.3616   c5.723,1.2542,11.772-1.3939,17.4426-4.3937C209.2957,44.6163,214.4399,39.7436,221.198,37.6272z"/><path d="M234.7365,80.8567c11.3314-3.5488,17.6406-15.6115,14.0918-26.9429c-3.5487-11.3314-15.6115-17.6406-26.9429-14.0918   c-11.3315,3.5487-17.6406,15.6115-14.0918,26.9429C211.3424,78.0964,223.4051,84.4054,234.7365,80.8567z M223.7121,73.0481   c-6.7812-1.7158-11.4746-6.289-10.4824-10.2158c0.9941-3.9258,5.498,1.3916,12.2812,3.1065   c6.7812,1.7148,13.2734-0.8223,12.2793,3.1045C236.798,72.97,230.4953,74.763,223.7121,73.0481z"/><path d="M6.2954,276.8842c1.8857,1.0503,3.9297,1.5488,5.9463,1.5488c4.3008-0.0005,8.4746-2.27,10.7148-6.2949l31.498-56.5923   c2.0078-3.6074,2.0635-7.9839,0.1475-11.6411l-12.1196-23.1391l27.8071,15.5463l2.6162,50.1855   c0.3408,6.5396,5.75,11.6128,12.2227,11.6128c0.2148,0,0.4316-0.0059,0.6484-0.0171c6.7568-0.3521,11.9482-6.1147,11.5957-12.8711   l-2.9688-56.9395c-0.2188-4.2036-2.5811-8.0005-6.2549-10.0547l-29.8044-16.6637l10.6672-54.4308l29.6206,2.9163   c0.2646,0.0259,0.5273,0.0391,0.7881,0.0391c3.3604,0,6.4033-2.1162,7.54-5.3379l4.4827-12.7009   c3.8026,6.5967,8.5989,14.9174,8.5989,14.9174c0.4956,0.8596,1.5764,1.1664,2.4148,0.6831l11.3069-6.5175   c0.8368-0.4824,1.113-1.5715,0.6174-2.4311c0,0-9.8309-17.055-12.501-21.6871c-1.3828-2.3989-3.0354-4.1618-4.9043-5.8616   c-0.7683-2.2268-2.5029-4.0967-4.8972-4.9418c-0.3458-0.1221-0.6948-0.21-1.0443-0.2825   c-3.1704-3.0888-9.265-12.7875-9.265-12.7875l-0.5499-0.9089c0,0-0.546-0.9161-0.6736-1.1373c0,0-0.8053-1.4283-1.5897-0.9762   l-3.1989,1.8439c-0.7852,0.4526,0.0497,1.8638,0.0497,1.8638c0.125,0.2228,0.644,1.1544,0.644,1.1544l0.5134,0.9299   c0,0,4.3911,8.3407,6.0156,13.0944c-0.4591,0.6221-0.8365,1.3204-1.1074,2.0873l-7.9131,22.4194l-19.9253-1.9615   c-6.8604,5.9487-16.7506,7.9153-25.7053,4.232c-5.3333-2.1937-9.4883-6.0479-12.1274-10.7166l-3.0864-0.6049l-12.7385-36.927   l14.5674-36.5728c1.6348-4.1045-0.3682-8.7573-4.4727-10.3921c-4.1025-1.6333-8.7578,0.3672-10.3926,4.4722l-15.666,39.333   c-0.709,1.7808-0.7549,3.7568-0.1299,5.5688L17.583,88.499c-0.0745,0.2465-0.1379,0.4988-0.1885,0.7568L4.2412,156.3717   c-0.3088,1.5765-0.1143,3.1347,0.4714,4.5093c0.2272,0.8071,0.5376,1.6034,0.9421,2.3759l24.1748,46.1548L1.5483,260.2231   C-1.7417,266.1347,0.3833,273.5942,6.2954,276.8842z M123.5998,94.3358l-6.4257,3.7039l-7.4911-12.9955l6.4257-3.7039   L123.5998,94.3358z"/><path d="M49.2038,93.6559c11.4934,4.7275,24.6404-0.7571,29.3674-12.2496c4.7271-11.4926-0.7561-24.64-12.2496-29.3674   c-11.4917-4.7267-24.6403,0.757-29.3674,12.2496C32.2271,75.7809,37.7121,88.9292,49.2038,93.6559z M47.353,76.7084   c1.2126-3.8649,5.4102,1.6998,12.0835,3.7958c6.675,2.0969,13.2983-0.0689,12.0862,3.7951   c-1.2144,3.8639-7.6089,5.2966-14.2826,3.2016C50.5651,85.404,46.1386,80.5723,47.353,76.7084z"/></g></svg>