<?xml version="1.0" ?><!DOCTYPE svg  PUBLIC '-//W3C//DTD SVG 1.1//EN'  'http://www.w3.org/Graphics/SVG/1.1/DTD/svg11.dtd'><svg id="Calque_1" style="enable-background:new 0 0 100 100;" version="1.1" viewBox="0 0 100 100" xml:space="preserve" xmlns="http://www.w3.org/2000/svg" xmlns:xlink="http://www.w3.org/1999/xlink"><g><g><path d="M85.9,93.3L83.4,84c-0.4-1.8-1.3-3.4-2.3-4.9l0.3-0.7c0.3-0.7,0.3-1.5,0-2.2c-0.3-0.7-0.9-1.3-1.6-1.6L71.1,71     c-0.8-0.3-1.5-0.3-2.3,0c-0.4,0.2-0.7,0.4-1,0.8l-3.7-0.5l-1.7-5c4.6-3.3,8.2-8.4,9.6-14.4c1.6-0.9,4.3-3.1,4.3-8.6     c0-4-0.7-6.5-2-7.8c-0.3-0.3-0.7-0.5-1-0.7c-0.3-2.5-0.9-4.8-1.8-7c-1.1,1.9-3.1,3.6-5.6,5c0.4,3.9,0.8,8.1,0.8,8.1     c0,0.6,0.4,1.1,1,1.1h2.7c0.5,0,1-2.5,1-3.1c0,0,0.3,0,0.6-0.1c0.3,0.7,0.5,1.9,0.5,4.4c0,4.5-2.4,5.3-2.6,5.3     c-0.8,0.2-1.3,0.8-1.5,1.5c-1.8,9.5-9.5,16.4-18.5,16.4c-8.9,0-16.6-6.9-18.4-16.4c-0.2-0.7-0.8-1.3-1.5-1.5     c-0.2-0.1-2.6-0.8-2.6-5.3c0-2.4,0.3-3.7,0.5-4.4c0.4,0.1,0.7,0.1,0.7,0.1c0,0.6,0.4,3.1,1,3.1h2.7c0.6,0,1-0.5,1-1.1     c0,0,0.3-4.2,0.7-8.1c-2.6-1.4-4.5-3.1-5.6-5c-0.9,2.2-1.5,4.5-1.7,7c-0.3,0.2-0.7,0.3-0.9,0.6c-1.5,1.4-2.1,3.8-2.1,7.9     c0,5.5,2.7,7.7,4.4,8.6c1.4,6.1,4.9,11.1,9.6,14.4l-1.7,5.1l-3.6,0.5c-0.3-0.3-0.7-0.6-1-0.8c-0.7-0.3-1.5-0.3-2.2,0l-8.8,3.7     c-0.7,0.3-1.3,0.9-1.6,1.6c-0.3,0.7-0.3,1.5,0,2.2l0.2,0.6c-1,1.5-1.9,3.1-2.3,4.9l-2.5,9.3c-0.3,1-0.1,2.1,0.6,2.9     c0.6,0.8,1.6,1.3,2.6,1.3h65.3c1,0,2-0.4,2.6-1.3C85.9,95.4,86.2,94.4,85.9,93.3z M22.4,79.9l-0.3-0.1l-0.9-2.6l9-3.5l0.9,2.6     L22.4,79.9z M39.3,73.3l1.7-5.1c2.8,1.3,5.9,2.1,9,2.1s6.2-0.8,9-2.1l1.7,5.1C54.3,77.9,45.7,77.9,39.3,73.3z M77.8,79.9h-0.2     L68.7,76l1.3-2.5l8.9,3.9L77.8,79.9z"/><path d="M46.4,41.7c0-1.9-1.5-3.3-3.3-3.3c-1.8,0-3.3,1.5-3.3,3.3c0,1.8,1.5,3.3,3.3,3.3C44.9,45,46.4,43.5,46.4,41.7z"/><path d="M60.3,41.7c0-1.9-1.5-3.3-3.3-3.3c-1.8,0-3.3,1.5-3.3,3.3c0,1.8,1.5,3.3,3.3,3.3C58.8,45,60.3,43.5,60.3,41.7z"/><path d="M50,58c2.8,0,5.5-1,6.9-2.7c0.5-0.6,0.4-1.4-0.2-1.9c-0.5-0.5-1.4-0.4-1.9,0.2c-1.9,2.1-7.8,2.1-9.6,0     c-0.5-0.6-1.4-0.7-1.9-0.2c-0.6,0.5-0.7,1.4-0.2,1.9C44.6,57,47.2,58,50,58z"/><path d="M70.2,24.4c-5.5-0.9-12.3-1.5-20.2-1.5c-7.9,0-14.7,0.6-20.2,1.5c0.7,5.3,9.5,9.4,20.2,9.4     C60.7,33.7,69.5,29.6,70.2,24.4z"/><path d="M29.2,21.9c6.2-1,13.5-1.5,20.8-1.5c7.3,0,14.6,0.5,20.8,1.5c3.8-2,6.2-4.6,6.2-7.5C77.1,7.8,65,2.5,50,2.5     c-14.9,0-27.1,5.3-27.1,11.9C22.9,17.3,25.3,19.9,29.2,21.9z"/></g></g></svg>