<?xml version="1.0" ?><!DOCTYPE svg  PUBLIC '-//W3C//DTD SVG 1.1//EN'  'http://www.w3.org/Graphics/SVG/1.1/DTD/svg11.dtd'><svg enable-background="new 0 0 100 100" height="100px" id="Layer_1" version="1.1" viewBox="0 0 100 100" width="100px" xml:space="preserve" xmlns="http://www.w3.org/2000/svg" xmlns:xlink="http://www.w3.org/1999/xlink"><g><path d="M50,35.75c-7.857,0-14.25,6.393-14.25,14.25S42.143,64.25,50,64.25S64.25,57.857,64.25,50S57.857,35.75,50,35.75z    M50,60.25c-5.652,0-10.25-4.598-10.25-10.25c0-5.65,4.598-10.25,10.25-10.25S60.25,44.35,60.25,50   C60.25,55.652,55.652,60.25,50,60.25z"/><path d="M50,32.833c1.104,0,2-0.896,2-2V25c0-1.104-0.896-2-2-2c-1.105,0-2,0.896-2,2v5.833C48,31.938,48.895,32.833,50,32.833z"/><path d="M50,67.166c-1.105,0-2,0.896-2,2V75c0,1.104,0.895,2,2,2c1.104,0,2-0.896,2-2v-5.834C52,68.063,51.104,67.166,50,67.166z"/><path d="M75.001,48h-5.833c-1.104,0-2,0.895-2,2c0,1.104,0.896,2,2,2h5.833c1.104,0,2-0.896,2-2C77.001,48.895,76.105,48,75.001,48   z"/><path d="M32.833,50c0-1.105-0.895-2-2-2h-5.834c-1.104,0-2,0.895-2,2c0,1.104,0.896,2,2,2h5.834C31.938,52,32.833,51.104,32.833,50   z"/><path d="M64.967,37.861l4.124-4.125c0.781-0.781,0.78-2.048,0-2.828c-0.781-0.782-2.047-0.781-2.828,0l-4.124,4.124   c-0.781,0.781-0.782,2.047,0,2.829C62.919,38.642,64.186,38.642,64.967,37.861z"/><path d="M35.032,62.139l-4.125,4.125c-0.78,0.781-0.782,2.047,0,2.828c0.78,0.781,2.048,0.781,2.828,0l4.125-4.123   c0.781-0.781,0.78-2.049,0-2.83C37.079,61.357,35.813,61.359,35.032,62.139z"/><path d="M64.968,62.141c-0.781-0.781-2.047-0.781-2.829,0c-0.78,0.779-0.78,2.047,0,2.828l4.125,4.123   c0.781,0.781,2.048,0.781,2.828,0c0.782-0.781,0.781-2.047,0-2.828L64.968,62.141z"/><path d="M35.032,37.861c0.781,0.781,2.048,0.78,2.828,0c0.782-0.782,0.782-2.047,0-2.829l-4.125-4.125   c-0.78-0.78-2.047-0.781-2.828,0c-0.78,0.78-0.78,2.048,0,2.828L35.032,37.861z"/></g></svg>