<?xml version="1.0" ?><!DOCTYPE svg  PUBLIC '-//W3C//DTD SVG 1.1//EN'  'http://www.w3.org/Graphics/SVG/1.1/DTD/svg11.dtd'><svg enable-background="new 0 0 32 32" height="32px" id="Layer_1" version="1.1" viewBox="0 0 32 32" width="32px" xml:space="preserve" xmlns="http://www.w3.org/2000/svg" xmlns:xlink="http://www.w3.org/1999/xlink"><path d="M25.873,12.875c1.092-0.978,1.793-2.382,1.793-3.959c0-2.94-2.393-5.333-5.334-5.333c-1.448,0-2.758,0.584-3.72,1.523  C17.82,4.722,16.936,4.5,15.999,4.5c-0.913,0-1.776,0.211-2.552,0.578C12.48,4.104,11.143,3.5,9.666,3.5  c-2.94,0-5.333,2.393-5.333,5.333c0,1.589,0.712,3.001,1.817,3.979C2.556,14.191,0,17.616,0,21.672C0,22.6,0,23.5,1.063,23.5h4.134  C5.072,24.155,5,24.829,5,25.521C5,26.568,5,27.5,6.073,27.5h19.853C27,27.5,27,26.536,27,25.495c0-0.684-0.072-1.349-0.193-1.995  h4.129C32,23.5,32,22.552,32,21.675C32,17.624,29.456,14.242,25.873,12.875z M22.332,5.583c1.839,0,3.334,1.495,3.334,3.333  c0,1.767-1.386,3.203-3.126,3.313c-0.07-0.001-0.138-0.01-0.208-0.01s-0.138,0.009-0.208,0.01c-0.125-0.008-0.25-0.016-0.37-0.037  C21.912,11.654,22,11.088,22,10.501c0-1.632-0.656-3.111-1.717-4.194C20.85,5.86,21.556,5.583,22.332,5.583z M14.584,6.771  C15.025,6.604,15.499,6.5,15.999,6.5c0.514,0,1,0.105,1.452,0.282c0.669,0.263,1.241,0.703,1.679,1.259  C19.667,8.722,20,9.569,20,10.501c0,0.244-0.03,0.48-0.072,0.713c-0.097,0.534-0.296,1.031-0.583,1.47  c-0.092,0.14-0.201,0.266-0.31,0.393c-0.725,0.853-1.787,1.406-2.988,1.421c-0.006,0-0.011,0.002-0.017,0.002  c-0.01,0-0.02,0.003-0.031,0.003c-1.243,0-2.342-0.583-3.076-1.476c-0.111-0.136-0.217-0.272-0.311-0.422  c-0.274-0.439-0.462-0.935-0.548-1.466C12.031,10.93,12,10.719,12,10.501c0-0.942,0.341-1.798,0.888-2.482  C13.331,7.464,13.91,7.028,14.584,6.771z M9.666,5.5c0.797,0,1.519,0.292,2.093,0.76C10.673,7.347,10,8.847,10,10.501  c0,0.558,0.083,1.097,0.226,1.609c-0.16,0.027-0.322,0.046-0.488,0.05c-0.024-0.001-0.048-0.004-0.072-0.004  s-0.047,0.003-0.071,0.004c-1.804-0.039-3.261-1.514-3.261-3.327C6.333,6.995,7.828,5.5,9.666,5.5z M2,21.5  c0.011-3.626,2.837-6.888,6.508-7.468c0.379-0.06,0.763-0.101,1.158-0.101s0.779,0.041,1.158,0.101  c0.127,0.021,0.256,0.034,0.381,0.061c0.339,0.452,0.74,0.854,1.192,1.195c-3.013,1.027-5.431,3.3-6.609,6.212H2z M7.009,25.5  c0.013-0.689,0.109-1.357,0.272-2c0.179-0.702,0.435-1.374,0.771-2c1.201-2.235,3.335-3.9,5.885-4.496  c0.533-0.125,1.083-0.199,1.647-0.226c0.139-0.006,0.275-0.021,0.416-0.021c0.139,0,0.275,0.015,0.413,0.021  c0.584,0.026,1.153,0.106,1.703,0.239c2.524,0.605,4.637,2.263,5.83,4.482c0.336,0.625,0.592,1.298,0.771,2  c0.164,0.643,0.26,1.311,0.274,2H7.009z M26.222,21.5c-1.174-2.919-3.595-5.19-6.615-6.215c0.45-0.34,0.85-0.741,1.189-1.193  c0.066-0.014,0.135-0.02,0.202-0.031c0.434-0.08,0.878-0.129,1.334-0.129s0.9,0.049,1.334,0.129  c3.583,0.655,6.319,3.872,6.334,7.439H26.222z"/></svg>