<?xml version="1.0" ?><svg id="Layer_1" style="enable-background:new 0 0 284.755 342.895;" version="1.1" viewBox="0 0 284.755 342.895" xml:space="preserve" xmlns="http://www.w3.org/2000/svg" xmlns:xlink="http://www.w3.org/1999/xlink"><g><path d="M129.098,137.781c9.062-7.232,10.543-20.443,3.307-29.506c-7.234-9.063-20.444-10.543-29.505-3.311   c-3.368,2.689-5.685,6.205-6.9,10.025v12.719c0.756,2.389,1.934,4.688,3.591,6.764   C106.825,143.535,120.035,145.016,129.098,137.781z"/><path d="M80.994,52.191c-1.316,3.145,0.027,6.732,3.004,8.275V48.932C82.692,49.607,81.606,50.727,80.994,52.191z"/><path d="M83.956,184.738c-2.97,2.014-3.744,6.057-1.729,9.027c0.486,0.717,1.092,1.301,1.771,1.754v-10.811   C83.982,184.719,83.956,184.738,83.956,184.738z"/><path d="M245.652,197.346c-0.745-3.225-3.019-5.857-6.103-7.06l-25.684-10.039l2.624-9.744c0.17-0.16,0.343-0.314,0.504-0.486   l65.06-69.455c3.775-4.029,3.568-10.359-0.463-14.133c-4.03-3.775-10.358-3.568-14.134,0.461l-60.525,64.615   c-3.38-2.617-7.364-5.67-11.835-9.037c-9.052-6.816-12.17-42.375-36.259-25.99c-0.784-10.059-5.366-19.08-11.431-26.826   c-10.088-12.834-24.464-22.832-36.363-29.885c-5.892-3.475-11.178-6.197-15.043-8.074v14.572   c6.508,3.426,14.926,8.305,22.968,14.285c7.311,5.418,14.279,11.746,19.217,18.447c4.965,6.731,7.812,13.625,7.781,20.551   c-0.019,4.055-0.967,8.25-3.327,12.852c-2.037,4.033-6.823,9.805-12.783,15.633c-8.944,8.813-20.489,18.066-29.736,25.035   c-1.437,1.084-2.81,2.107-4.119,3.072v16.047c4.956-3.512,13.227-9.521,22.072-16.598c7.05-5.643,14.46-11.953,20.901-18.289   c1.02-1.008,2.005-2.012,2.971-3.016c4.477-0.008,24.98,0.395,33.15,8.174c7.266,6.918,6.551,37.305,34.251,37.496l9.304,3.637   l-32.751,35.6c-3.74,4.066-3.476,10.391,0.59,14.131c1.92,1.768,4.347,2.641,6.767,2.641c2.7,0,5.391-1.086,7.361-3.23   l42.653-46.361C245.509,203.934,246.399,200.57,245.652,197.346z"/><rect height="319.998" width="8" x="86"/><rect height="20" width="180" y="322.895"/></g></svg>