<svg xmlns="http://www.w3.org/2000/svg" width="172" height="94" viewBox="0 0 172 94">
    <defs>
        <linearGradient id="tj9fdrtkwa" x1="50%" x2="50%" y1="0%" y2="100%">
            <stop offset="0%" stop-color="#EA33F8"/>
            <stop offset="42.638%" stop-color="#F42862"/>
            <stop offset="100%" stop-color="#F28F1A"/>
        </linearGradient>
    </defs>
    <g fill="none" fill-rule="evenodd">
        <g>
            <g>
                <path fill="url(#tj9fdrtkwa)" d="M100.344 12.552c2.369 4.746 5.564 11.834 7.323 18.648 1.472 5.702-.334 10.695-4.435 12.936l-.24.127 2.357 8.72c2.824-.434 5.567-.787 6.404 1.806l.059.2L96.729 59c-.845-3.125 3.137-4.405 4.487-4.93l.09-.036-2.349-8.695c-5.197.263-9.16-3.784-10.628-8.994-1.417-5.025-2.226-10.567-2.688-15.255 1.191.504 2.437 1.201 3.397 2.06.47 3.973 1.201 8.372 2.332 12.382 2.386 8.468 9.94 7.964 12.502 3.908-4.311 2.136-8.225-.79-9.583-5.607-.588-2.088-1.062-4.15-1.443-6.313l-.158-.933h10.161c-1.38-3.773-3.032-7.723-4.495-10.786l-.272-.564-6.953 1.704c-1.014-1.005-1.983-1.65-3.137-2.18l-.319-.143 10.848-2.884c.726-.194 1.49.148 1.823.818zM70.346 8.865c.335-.664 1.103-1.004 1.834-.812l2.798.737s1.124 1.516.733 3.42c-.13-.04-2.192-.574-3.091-.81-2.235 4.53-4.998 10.797-6.563 16.781-2.187 8.368 4.583 11.755 8.939 9.514-4.29-.245-6.91-4.1-5.48-9.565.393-1.508.869-2.96 1.393-4.454h10.227c.17-.996.32-2.17.45-3.186 1.686-.482 3.494.094 3.193.014-.493 3.889-1.234 8.076-2.35 11.99-1.485 5.199-5.478 9.196-10.692 8.934L69.37 50.09c2.738 1.04 5.378 2.115 4.614 4.911l-15.171-3.984c.869-3.176 5.15-2.203 6.505-2.015l2.362-8.64c-4.292-2.162-6.206-7.202-4.697-12.974 1.77-6.768 4.981-13.807 7.364-18.522zM89.205 1.38c.641 4.396 2.76 5.438 4.97 6.277 1.817.456 1.204 3.196-.64 2.832-1.57-.45-5.12-1.364-6.621-5.442-2.044 2.039-4.024 2.534-6.858 2.45 1.153 3.07 1.294 5.627-.098 8.518 1.745-.379 3.833-.677 6.159.118 3.443 1.178 6.445 4.003 4.958 5.248-.404.338-.944.153-1.307-.12-4.95-3.733-8.333-2.913-12.809-1.12-1.466.655-2.809-1.126-1.791-2.357 2.482-2.998 3.949-6.131 1.066-11.052l-.175-.291c-.723-1.18.303-2.675 1.702-2.383 6.108 1.275 8.068-2.61 8.56-3.31.749-1.229 2.662-.892 2.884.632z" transform="translate(-635 -33) translate(635.188 33)"/>
                <path fill="#2A2737" fill-rule="nonzero" d="M3.78 93v-8.988c0-2.884 1.68-4.452 3.836-4.452 2.464 0 3.696 1.568 3.696 4.116V93h3.836v-9.716c0-4.452-2.38-7-6.496-7-2.128 0-3.808.924-4.9 2.352V76.62H0V93h3.78zm15.456-18.032c1.484 0 2.38-.924 2.38-2.352s-.896-2.38-2.38-2.38c-1.456 0-2.38.952-2.38 2.38s.84 2.352 2.38 2.352zM21.14 93V76.62h-3.808V93h3.808zm10.164.336c3.808 0 6.58-2.128 7.868-5.152l-3.388-1.456c-.756 1.792-2.296 3.052-4.424 3.052-2.8 0-4.872-2.24-4.872-4.956 0-2.772 2.072-4.984 4.844-4.984 2.016 0 3.64 1.148 4.396 2.94l3.388-1.428c-1.26-2.968-4.144-5.068-7.812-5.068-4.788 0-8.512 3.752-8.512 8.54 0 4.704 3.724 8.512 8.512 8.512zm17.416 0c3.696 0 6.216-1.764 7.644-4.424l-3.108-1.792c-.784 1.764-2.408 2.884-4.536 2.884-2.688 0-4.508-1.54-5.04-3.864h13.328v-1.428c0-4.844-3.556-8.428-8.428-8.428-4.788 0-8.512 3.78-8.512 8.568 0 4.732 3.5 8.484 8.652 8.484zm4.452-10.36h-9.296c.672-2.016 2.436-3.36 4.704-3.36 2.352 0 4.032 1.148 4.592 3.36zm13.048 10.36c2.156 0 4.116-.924 5.32-2.464V93h3.78V72.28h-3.808v6.272c-1.204-1.428-3.108-2.268-5.236-2.268-4.144 0-8.12 3.108-8.12 8.54 0 5.376 4.116 8.512 8.064 8.512zm.616-3.472c-2.8 0-4.956-2.24-4.956-5.096 0-2.828 2.156-5.04 4.956-5.04 2.828 0 4.9 2.24 4.9 5.04 0 2.828-2.072 5.096-4.9 5.096zM81.256 93v-8.736c0-2.828 1.148-4.004 3.36-4.004 1.092 0 1.708.28 2.268.644l1.428-3.584c-.756-.42-1.68-.7-2.884-.7-2.044 0-3.444.812-4.2 2.436V76.62h-3.752V93h3.78zm10.192-18.032c1.484 0 2.38-.924 2.38-2.352s-.896-2.38-2.38-2.38c-1.456 0-2.38.952-2.38 2.38s.84 2.352 2.38 2.352zM93.352 93V76.62h-3.808V93h3.808zm11.396 0l6.16-16.38h-3.892l-4.144 11.536-4.228-11.536h-3.948L100.94 93h3.808zm15.68.336c3.696 0 6.216-1.764 7.644-4.424l-3.108-1.792c-.784 1.764-2.408 2.884-4.536 2.884-2.688 0-4.508-1.54-5.04-3.864h13.328v-1.428c0-4.844-3.556-8.428-8.428-8.428-4.788 0-8.512 3.78-8.512 8.568 0 4.732 3.5 8.484 8.652 8.484zm4.452-10.36h-9.296c.672-2.016 2.436-3.36 4.704-3.36 2.352 0 4.032 1.148 4.592 3.36zm7.308 10.36c1.428 0 2.296-.924 2.296-2.268 0-1.372-.84-2.296-2.268-2.296s-2.296.924-2.296 2.296c0 1.344.84 2.268 2.268 2.268zm11.536 0c2.156 0 4.116-.924 5.32-2.464V93h3.78V72.28h-3.808v6.272c-1.204-1.428-3.108-2.268-5.236-2.268-4.144 0-8.12 3.108-8.12 8.54 0 5.376 4.116 8.512 8.064 8.512zm.616-3.472c-2.8 0-4.956-2.24-4.956-5.096 0-2.828 2.156-5.04 4.956-5.04 2.828 0 4.9 2.24 4.9 5.04 0 2.828-2.072 5.096-4.9 5.096zM158.76 93v-4.172l2.604-2.884 4.9 7.056h4.228l-6.552-9.296 6.328-7.084h-4.536l-6.972 7.896V72.28h-3.78V93h3.78z" transform="translate(-635 -33) translate(635.188 33)"/>
            </g>
        </g>
    </g>
</svg>
