<?xml version="1.0" ?><svg id="Слой_1" style="enable-background:new 0 0 100 100;" version="1.1" viewBox="0 0 100 100" xml:space="preserve" xmlns="http://www.w3.org/2000/svg" xmlns:xlink="http://www.w3.org/1999/xlink"><path d="M92,57.3l-16.7,4.5L55,50l20.3-11.7L92,42.7c0.2,0.1,0.4,0.1,0.6,0.1c1.1,0,2.1-0.7,2.4-1.9c0.4-1.3-0.4-2.7-1.8-3.1  l-11.8-3.2l11-6.3c1.2-0.7,1.6-2.2,0.9-3.4c-0.7-1.2-2.2-1.6-3.4-0.9l-11,6.3l3.2-11.8c0.4-1.3-0.4-2.7-1.8-3.1  c-1.3-0.4-2.7,0.4-3.1,1.8l-4.5,16.7L52.5,45.7V22.2L64.7,10c1-1,1-2.6,0-3.5c-1-1-2.6-1-3.5,0l-8.7,8.7V2.5C52.5,1.1,51.4,0,50,0  s-2.5,1.1-2.5,2.5v12.6l-8.7-8.7c-1-1-2.6-1-3.5,0c-1,1-1,2.6,0,3.5l12.2,12.2v23.5L27.2,33.9l-4.5-16.7c-0.4-1.3-1.7-2.1-3.1-1.8  c-1.3,0.4-2.1,1.7-1.8,3.1l3.2,11.8l-11-6.3c-1.2-0.7-2.7-0.3-3.4,0.9c-0.7,1.2-0.3,2.7,0.9,3.4l11,6.3L6.7,37.9  C5.4,38.3,4.6,39.6,5,41c0.3,1.1,1.3,1.9,2.4,1.9c0.2,0,0.4,0,0.6-0.1l16.7-4.5L45,50L24.7,61.7L8,57.3C6.7,56.9,5.3,57.7,5,59  c-0.4,1.3,0.4,2.7,1.8,3.1l11.8,3.2l-11,6.3C6.4,72.3,6,73.8,6.7,75c0.5,0.8,1.3,1.3,2.2,1.3c0.4,0,0.9-0.1,1.2-0.3l11-6.3  l-3.2,11.8c-0.4,1.3,0.4,2.7,1.8,3.1c0.2,0.1,0.4,0.1,0.6,0.1c1.1,0,2.1-0.7,2.4-1.9l4.5-16.7l20.3-11.7v23.5L35.3,90  c-1,1-1,2.6,0,3.5c0.5,0.5,1.1,0.7,1.8,0.7s1.3-0.2,1.8-0.7l8.7-8.7v12.6c0,1.4,1.1,2.5,2.5,2.5s2.5-1.1,2.5-2.5V84.9l8.7,8.7  c1,1,2.6,1,3.5,0c1-1,1-2.6,0-3.5L52.5,77.8V54.3l20.3,11.7l4.5,16.7c0.3,1.1,1.3,1.9,2.4,1.9c0.2,0,0.4,0,0.6-0.1  c1.3-0.4,2.1-1.7,1.8-3.1l-3.2-11.8l11,6.3c0.4,0.2,0.8,0.3,1.2,0.3c0.9,0,1.7-0.4,2.2-1.3c0.7-1.2,0.3-2.7-0.9-3.4l-11-6.3  l11.8-3.2c1.3-0.4,2.1-1.7,1.8-3.1C94.7,57.7,93.3,56.9,92,57.3z"/></svg>