<?xml version="1.0" encoding="utf-8"?>
<!-- Generator: Adobe Illustrator 24.3.0, SVG Export Plug-In . SVG Version: 6.00 Build 0)  -->
<svg version="1.1" id="Lag_1" xmlns="http://www.w3.org/2000/svg" xmlns:xlink="http://www.w3.org/1999/xlink" x="0px" y="0px"
	 viewBox="0 0 16 16" style="enable-background:new 0 0 16 16;" xml:space="preserve">
<style type="text/css">
	.st0{fill:#FFFFFF;}
</style>
<g id="row_5-6">
	<path id="audio_media_music_speakers" class="st0" d="M12,0H4C3.4,0,3,0.4,3,1v14c0,0.6,0.4,1,1,1h8c0.6,0,1-0.4,1-1V1
		C13,0.4,12.6,0,12,0z M8,1c1.1,0,2,0.9,2,2S9.1,5,8,5S6,4.1,6,3S6.9,1,8,1z M8,14.8c-2.1,0-3.8-1.7-3.8-3.8S5.9,7.3,8,7.3
		s3.8,1.7,3.8,3.8S10.1,14.8,8,14.8z M7,3c0-0.6,0.4-1,1-1s1,0.4,1,1S8.6,4,8,4S7,3.6,7,3z M9,11c0,0.6-0.4,1-1,1s-1-0.4-1-1
		s0.4-1,1-1S9,10.4,9,11z"/>
</g>
</svg>
