<?xml version="1.0" ?><svg id="Layer_1" style="enable-background:new 0 0 48 48;" version="1.1" viewBox="0 0 48 48" xml:space="preserve" xmlns="http://www.w3.org/2000/svg" xmlns:xlink="http://www.w3.org/1999/xlink"><g><path d="M5.9,11.6H1.5c-0.6,0-1,0.5-1,1v7h5.4V11.6z"/><path d="M7,28.6c-1.7,0-3.2,1.1-3.8,2.8c-0.1,0.4-0.2,0.8-0.2,1.2c0,2.2,1.8,3.9,3.9,3.9c2.2,0,3.9-1.8,3.9-3.9   c0-0.4-0.1-0.8-0.2-1.2C10.3,29.7,8.8,28.6,7,28.6z"/><path d="M44.2,31.3c-0.5-1.7-2-2.8-3.8-2.8c-1.7,0-3.2,1.1-3.8,2.8c-0.1,0.4-0.2,0.8-0.2,1.2c0,2.2,1.8,3.9,3.9,3.9   c2.2,0,3.9-1.8,3.9-3.9C44.3,32.1,44.3,31.7,44.2,31.3L44.2,31.3z"/><path d="M24.1,31.3c-0.5-1.7-2-2.8-3.8-2.8c-1.7,0-3.2,1.1-3.7,2.7c-0.1,0.4-0.2,0.8-0.2,1.2c0,2.2,1.8,3.9,3.9,3.9   c2.2,0,3.9-1.8,3.9-3.9C24.3,32.1,24.2,31.7,24.1,31.3L24.1,31.3z"/><rect height="8" width="5.1" x="8.1" y="11.6"/><rect height="8" width="5.1" x="15.5" y="11.6"/><path d="M0.5,29.9h0.9c0,0,0,0,0-0.1c0.1-0.1,0.1-0.2,0.2-0.3C1.8,29.3,1.8,29.2,2,29c0.1-0.1,0.2-0.2,0.2-0.3   c0.1-0.1,0.2-0.3,0.3-0.4c0.1-0.1,0.2-0.2,0.3-0.3c0.1-0.1,0.3-0.2,0.4-0.3c0.1-0.1,0.2-0.2,0.3-0.2c0.1-0.1,0.3-0.2,0.4-0.3   C4.1,27.1,4.2,27,4.3,27c0.2-0.1,0.3-0.1,0.5-0.2c0.1,0,0.2-0.1,0.3-0.1c0.2-0.1,0.4-0.1,0.6-0.1c0.1,0,0.2-0.1,0.3-0.1   c0.3,0,0.6-0.1,0.9-0.1c0.3,0,0.6,0,1,0.1c0.1,0,0.2,0,0.3,0.1c0.2,0,0.4,0.1,0.6,0.1c0.1,0,0.2,0.1,0.3,0.1   c0.2,0.1,0.3,0.1,0.5,0.2c0.1,0.1,0.2,0.1,0.3,0.2c0.2,0.1,0.3,0.2,0.5,0.3c0.1,0.1,0.2,0.2,0.3,0.2c0.1,0.1,0.3,0.2,0.4,0.3   c0.1,0.1,0.2,0.2,0.3,0.3c0.1,0.1,0.2,0.3,0.3,0.4c0.1,0.1,0.2,0.2,0.2,0.3c0.1,0.2,0.2,0.3,0.3,0.5c0.1,0.1,0.1,0.2,0.2,0.3   c0,0,0,0,0,0.1h2.2c0,0,0,0,0-0.1c0.1-0.1,0.1-0.2,0.2-0.3c0.1-0.2,0.2-0.3,0.3-0.5c0.1-0.1,0.2-0.2,0.2-0.3   c0.1-0.1,0.2-0.3,0.3-0.4c0.1-0.1,0.2-0.2,0.3-0.3c0.1-0.1,0.3-0.2,0.4-0.3c0.1-0.1,0.2-0.2,0.3-0.2c0.1-0.1,0.3-0.2,0.4-0.3   c0.1-0.1,0.2-0.1,0.3-0.2c0.2-0.1,0.3-0.1,0.5-0.2c0.1,0,0.2-0.1,0.3-0.1c0.2-0.1,0.4-0.1,0.6-0.1c0.1,0,0.2-0.1,0.3-0.1   c0.3,0,0.6-0.1,0.9-0.1c0.3,0,0.6,0,1,0.1c0.1,0,0.2,0,0.3,0.1c0.2,0,0.4,0.1,0.6,0.1c0.1,0,0.2,0.1,0.3,0.1   c0.2,0.1,0.4,0.1,0.5,0.2c0.1,0.1,0.2,0.1,0.3,0.2c0.2,0.1,0.3,0.2,0.5,0.3c0.1,0.1,0.2,0.1,0.3,0.2c0.1,0.1,0.3,0.2,0.4,0.3   c0.1,0.1,0.2,0.2,0.3,0.3c0.1,0.1,0.2,0.3,0.3,0.4c0.1,0.1,0.2,0.2,0.2,0.3c0.1,0.2,0.2,0.3,0.3,0.5c0.1,0.1,0.1,0.2,0.2,0.3   c0,0,0,0,0,0.1H28v-8.1H0.5V29.9z"/><rect height="8" width="5.1" x="22.9" y="11.6"/><path d="M41.1,12c-0.2-0.3-0.5-0.4-0.8-0.4h-10v18.3h4.5c0,0,0,0,0-0.1c0.1-0.1,0.1-0.2,0.2-0.3c0.1-0.2,0.2-0.3,0.3-0.5   c0.1-0.1,0.2-0.2,0.2-0.3c0.1-0.1,0.2-0.3,0.3-0.4c0.1-0.1,0.2-0.2,0.3-0.3c0.1-0.1,0.3-0.2,0.4-0.3c0.1-0.1,0.2-0.2,0.3-0.2   c0.1-0.1,0.3-0.2,0.4-0.3c0.1-0.1,0.2-0.1,0.3-0.2c0.2-0.1,0.3-0.1,0.5-0.2c0.1,0,0.2-0.1,0.3-0.1c0.2-0.1,0.4-0.1,0.6-0.1   c0.1,0,0.2-0.1,0.3-0.1c0.3,0,0.6-0.1,0.9-0.1c0.3,0,0.6,0,1,0.1c0.1,0,0.2,0,0.3,0.1c0.2,0,0.4,0.1,0.6,0.1c0.1,0,0.2,0.1,0.3,0.1   c0.2,0.1,0.4,0.1,0.5,0.2c0.1,0.1,0.2,0.1,0.3,0.2c0.2,0.1,0.3,0.2,0.5,0.3c0.1,0.1,0.2,0.1,0.3,0.2c0.1,0.1,0.3,0.2,0.4,0.3   c0.1,0.1,0.2,0.2,0.3,0.3c0.1,0.1,0.2,0.3,0.3,0.4c0.1,0.1,0.2,0.2,0.2,0.3c0.1,0.2,0.2,0.3,0.3,0.5c0.1,0.1,0.1,0.2,0.2,0.3   c0,0,0,0,0,0.1h1.5v-7.5L41.9,13L41.1,12z M33.6,21.7v-6.8h5.4l4.1,6.8H33.6z"/></g></svg>